<svg width="1600" height="1000" viewBox="0 0 1600 1000" fill="none" xmlns="http://www.w3.org/2000/svg">
  <defs>
    <linearGradient id="bg" x1="0" y1="0" x2="1600" y2="1000" gradientUnits="userSpaceOnUse">
      <stop stop-color="#0B1020"/>
      <stop offset="1" stop-color="#070B14"/>
    </linearGradient>
    <radialGradient id="glow" cx="0" cy="0" r="1" gradientUnits="userSpaceOnUse" gradientTransform="translate(1120 280) rotate(132) scale(740 520)">
      <stop stop-color="#4CC9FF" stop-opacity="0.22"/>
      <stop offset="1" stop-color="#2A58FF" stop-opacity="0"/>
    </radialGradient>
    <filter id="soft" x="-40" y="-40" width="1680" height="1080" filterUnits="userSpaceOnUse" color-interpolation-filters="sRGB">
      <feGaussianBlur stdDeviation="10"/>
    </filter>
  </defs>

  <rect width="1600" height="1000" fill="url(#bg)"/>
  <rect width="1600" height="1000" fill="url(#glow)"/>

  <!-- water/park-ish blobs -->
  <g filter="url(#soft)" opacity="0.65">
    <path d="M140 740C260 650 420 640 540 720C650 792 760 820 920 760C1080 700 1220 660 1400 720C1520 762 1540 846 1460 910C1360 990 1180 1000 980 950C780 900 560 940 420 910C280 880 40 830 140 740Z" fill="#0E1B36"/>
    <path d="M210 250C310 160 480 150 600 210C730 275 880 255 980 200C1100 140 1280 140 1390 220C1490 290 1500 380 1410 430C1320 480 1160 520 980 480C820 444 700 520 560 520C400 520 130 334 210 250Z" fill="#0C1630"/>
  </g>

  <!-- major roads -->
  <g opacity="0.9" stroke-linecap="round">
    <path d="M90 140C260 210 420 210 560 180C740 140 920 70 1110 90C1260 110 1380 200 1510 300" stroke="#1D2A4B" stroke-width="16"/>
    <path d="M80 540C260 520 400 500 560 540C700 576 820 650 940 660C1100 670 1280 600 1520 520" stroke="#1D2A4B" stroke-width="16"/>
    <path d="M260 940C280 800 360 700 520 640C700 570 780 450 760 300C740 170 820 120 940 110C1080 100 1220 140 1400 210" stroke="#1D2A4B" stroke-width="16"/>
  </g>

  <!-- minor roads -->
  <g opacity="0.9" stroke="#23345C" stroke-width="8" stroke-linecap="round">
    <path d="M180 340C320 360 420 420 520 460C650 515 790 540 930 520C1110 490 1230 430 1400 360"/>
    <path d="M520 120C520 260 560 350 640 420C720 490 820 560 920 600C1080 665 1180 750 1240 900"/>
    <path d="M1280 120C1180 220 1120 300 1100 420C1080 520 1020 600 920 680C820 760 760 840 720 940"/>
    <path d="M120 720C260 660 360 610 420 540C480 470 540 420 620 380C760 312 920 260 1090 250C1260 240 1390 270 1500 320"/>
  </g>

  <!-- points of interest dots -->
  <g>
    <circle cx="340" cy="560" r="7" fill="#4CC9FF" opacity="0.7"/>
    <circle cx="520" cy="460" r="7" fill="#62F6B2" opacity="0.7"/>
    <circle cx="740" cy="540" r="7" fill="#FFD166" opacity="0.7"/>
    <circle cx="920" cy="600" r="7" fill="#4CC9FF" opacity="0.7"/>
    <circle cx="1120" cy="420" r="7" fill="#62F6B2" opacity="0.7"/>
    <circle cx="1280" cy="600" r="7" fill="#FFD166" opacity="0.7"/>
  </g>

  <!-- subtle grid -->
  <g opacity="0.18" stroke="#23345C" stroke-width="1">
    <path d="M0 200H1600"/>
    <path d="M0 400H1600"/>
    <path d="M0 600H1600"/>
    <path d="M0 800H1600"/>
    <path d="M200 0V1000"/>
    <path d="M400 0V1000"/>
    <path d="M600 0V1000"/>
    <path d="M800 0V1000"/>
    <path d="M1000 0V1000"/>
    <path d="M1200 0V1000"/>
    <path d="M1400 0V1000"/>
  </g>

  <!-- label -->
  <g opacity="0.55">
    <rect x="28" y="24" width="210" height="38" rx="12" fill="#0A1226" stroke="rgba(255,255,255,0.14)"/>
    <text x="44" y="49" fill="rgba(232,238,252,0.80)" font-family="ui-sans-serif, system-ui, -apple-system, Segoe UI, Roboto, Helvetica, Arial" font-size="14" font-weight="700">
      MAP PLACEHOLDER
    </text>
  </g>
</svg>
